<svg width="416" height="129" viewBox="0 0 416 129" fill="none" xmlns="http://www.w3.org/2000/svg">
<rect width="416" height="129" fill="url(#paint0_linear_22_925)"/>
<path d="M61.096 40.848V42.032H58.056V52H56.6V42.032H53.544V40.848H61.096ZM67.2403 43.072C67.9016 43.072 68.4989 43.216 69.0323 43.504C69.5656 43.7813 69.9816 44.2027 70.2803 44.768C70.5896 45.3333 70.7443 46.0213 70.7443 46.832V52H69.3043V47.04C69.3043 46.1653 69.0856 45.4987 68.6483 45.04C68.2109 44.5707 67.6136 44.336 66.8563 44.336C66.0883 44.336 65.4749 44.576 65.0163 45.056C64.5683 45.536 64.3443 46.2347 64.3443 47.152V52H62.8883V40.16H64.3443V44.48C64.6323 44.032 65.0269 43.6853 65.5283 43.44C66.0403 43.1947 66.6109 43.072 67.2403 43.072ZM73.8746 41.808C73.5973 41.808 73.3626 41.712 73.1706 41.52C72.9786 41.328 72.8826 41.0933 72.8826 40.816C72.8826 40.5387 72.9786 40.304 73.1706 40.112C73.3626 39.92 73.5973 39.824 73.8746 39.824C74.1413 39.824 74.3653 39.92 74.5466 40.112C74.7386 40.304 74.8346 40.5387 74.8346 40.816C74.8346 41.0933 74.7386 41.328 74.5466 41.52C74.3653 41.712 74.1413 41.808 73.8746 41.808ZM74.5786 43.232V52H73.1226V43.232H74.5786ZM80.1641 52.144C79.4921 52.144 78.8895 52.032 78.3561 51.808C77.8228 51.5733 77.4015 51.2533 77.0921 50.848C76.7828 50.432 76.6121 49.9573 76.5801 49.424H78.0841C78.1268 49.8613 78.3295 50.2187 78.6921 50.496C79.0655 50.7733 79.5508 50.912 80.1481 50.912C80.7028 50.912 81.1401 50.7893 81.4601 50.544C81.7801 50.2987 81.9401 49.9893 81.9401 49.616C81.9401 49.232 81.7695 48.9493 81.4281 48.768C81.0868 48.576 80.5588 48.3893 79.8441 48.208C79.1935 48.0373 78.6601 47.8667 78.2441 47.696C77.8388 47.5147 77.4868 47.2533 77.1881 46.912C76.9001 46.56 76.7561 46.1013 76.7561 45.536C76.7561 45.088 76.8895 44.6773 77.1561 44.304C77.4228 43.9307 77.8015 43.6373 78.2921 43.424C78.7828 43.2 79.3428 43.088 79.9721 43.088C80.9428 43.088 81.7268 43.3333 82.3241 43.824C82.9215 44.3147 83.2415 44.9867 83.2841 45.84H81.8281C81.7961 45.3813 81.6095 45.0133 81.2681 44.736C80.9375 44.4587 80.4895 44.32 79.9241 44.32C79.4015 44.32 78.9855 44.432 78.6761 44.656C78.3668 44.88 78.2121 45.1733 78.2121 45.536C78.2121 45.824 78.3028 46.064 78.4841 46.256C78.6761 46.4373 78.9108 46.5867 79.1881 46.704C79.4761 46.8107 79.8708 46.9333 80.3721 47.072C81.0015 47.2427 81.5135 47.4133 81.9081 47.584C82.3028 47.744 82.6388 47.9893 82.9161 48.32C83.2041 48.6507 83.3535 49.0827 83.3641 49.616C83.3641 50.096 83.2308 50.528 82.9641 50.912C82.6975 51.296 82.3188 51.6 81.8281 51.824C81.3481 52.0373 80.7935 52.144 80.1641 52.144ZM90.4371 41.808C90.1598 41.808 89.9251 41.712 89.7331 41.52C89.5411 41.328 89.4451 41.0933 89.4451 40.816C89.4451 40.5387 89.5411 40.304 89.7331 40.112C89.9251 39.92 90.1598 39.824 90.4371 39.824C90.7038 39.824 90.9278 39.92 91.1091 40.112C91.3011 40.304 91.3971 40.5387 91.3971 40.816C91.3971 41.0933 91.3011 41.328 91.1091 41.52C90.9278 41.712 90.7038 41.808 90.4371 41.808ZM91.1411 43.232V52H89.6851V43.232H91.1411ZM96.7266 52.144C96.0546 52.144 95.452 52.032 94.9186 51.808C94.3853 51.5733 93.964 51.2533 93.6546 50.848C93.3453 50.432 93.1746 49.9573 93.1426 49.424H94.6466C94.6893 49.8613 94.892 50.2187 95.2546 50.496C95.628 50.7733 96.1133 50.912 96.7106 50.912C97.2653 50.912 97.7026 50.7893 98.0226 50.544C98.3426 50.2987 98.5026 49.9893 98.5026 49.616C98.5026 49.232 98.332 48.9493 97.9906 48.768C97.6493 48.576 97.1213 48.3893 96.4066 48.208C95.756 48.0373 95.2226 47.8667 94.8066 47.696C94.4013 47.5147 94.0493 47.2533 93.7506 46.912C93.4626 46.56 93.3186 46.1013 93.3186 45.536C93.3186 45.088 93.452 44.6773 93.7186 44.304C93.9853 43.9307 94.364 43.6373 94.8546 43.424C95.3453 43.2 95.9053 43.088 96.5346 43.088C97.5053 43.088 98.2893 43.3333 98.8866 43.824C99.484 44.3147 99.804 44.9867 99.8466 45.84H98.3906C98.3586 45.3813 98.172 45.0133 97.8306 44.736C97.5 44.4587 97.052 44.32 96.4866 44.32C95.964 44.32 95.548 44.432 95.2386 44.656C94.9293 44.88 94.7746 45.1733 94.7746 45.536C94.7746 45.824 94.8653 46.064 95.0466 46.256C95.2386 46.4373 95.4733 46.5867 95.7506 46.704C96.0386 46.8107 96.4333 46.9333 96.9346 47.072C97.564 47.2427 98.076 47.4133 98.4706 47.584C98.8653 47.744 99.2013 47.9893 99.4786 48.32C99.7666 48.6507 99.916 49.0827 99.9266 49.616C99.9266 50.096 99.7933 50.528 99.5266 50.912C99.26 51.296 98.8813 51.6 98.3906 51.824C97.9106 52.0373 97.356 52.144 96.7266 52.144ZM108.024 44.432V49.6C108.024 50.0267 108.114 50.3307 108.296 50.512C108.477 50.6827 108.792 50.768 109.24 50.768H110.312V52H109C108.189 52 107.581 51.8133 107.176 51.44C106.77 51.0667 106.568 50.4533 106.568 49.6V44.432H105.432V43.232H106.568V41.024H108.024V43.232H110.312V44.432H108.024ZM116.428 43.072C117.089 43.072 117.686 43.216 118.22 43.504C118.753 43.7813 119.169 44.2027 119.468 44.768C119.777 45.3333 119.932 46.0213 119.932 46.832V52H118.492V47.04C118.492 46.1653 118.273 45.4987 117.836 45.04C117.398 44.5707 116.801 44.336 116.044 44.336C115.276 44.336 114.662 44.576 114.204 45.056C113.756 45.536 113.532 46.2347 113.532 47.152V52H112.076V40.16H113.532V44.48C113.82 44.032 114.214 43.6853 114.716 43.44C115.228 43.1947 115.798 43.072 116.428 43.072ZM130.31 47.28C130.31 47.5573 130.294 47.8507 130.262 48.16H123.254C123.307 49.024 123.601 49.7013 124.134 50.192C124.678 50.672 125.334 50.912 126.102 50.912C126.731 50.912 127.254 50.768 127.67 50.48C128.097 50.1813 128.395 49.7867 128.566 49.296H130.134C129.899 50.1387 129.43 50.8267 128.726 51.36C128.022 51.8827 127.147 52.144 126.102 52.144C125.27 52.144 124.523 51.9573 123.862 51.584C123.211 51.2107 122.699 50.6827 122.326 50C121.953 49.3067 121.766 48.5067 121.766 47.6C121.766 46.6933 121.947 45.8987 122.31 45.216C122.673 44.5333 123.179 44.0107 123.83 43.648C124.491 43.2747 125.249 43.088 126.102 43.088C126.934 43.088 127.67 43.2693 128.31 43.632C128.95 43.9947 129.441 44.496 129.782 45.136C130.134 45.7653 130.31 46.48 130.31 47.28ZM128.806 46.976C128.806 46.4213 128.683 45.9467 128.438 45.552C128.193 45.1467 127.857 44.8427 127.43 44.64C127.014 44.4267 126.55 44.32 126.038 44.32C125.302 44.32 124.673 44.5547 124.15 45.024C123.638 45.4933 123.345 46.144 123.27 46.976H128.806ZM138.274 44.432V49.6C138.274 50.0267 138.364 50.3307 138.546 50.512C138.727 50.6827 139.042 50.768 139.49 50.768H140.562V52H139.25C138.439 52 137.831 51.8133 137.426 51.44C137.02 51.0667 136.818 50.4533 136.818 49.6V44.432H135.682V43.232H136.818V41.024H138.274V43.232H140.562V44.432H138.274ZM143.078 41.808C142.8 41.808 142.566 41.712 142.374 41.52C142.182 41.328 142.086 41.0933 142.086 40.816C142.086 40.5387 142.182 40.304 142.374 40.112C142.566 39.92 142.8 39.824 143.078 39.824C143.344 39.824 143.568 39.92 143.75 40.112C143.942 40.304 144.038 40.5387 144.038 40.816C144.038 41.0933 143.942 41.328 143.75 41.52C143.568 41.712 143.344 41.808 143.078 41.808ZM143.782 43.232V52H142.326V43.232H143.782ZM156.807 43.072C157.49 43.072 158.098 43.216 158.631 43.504C159.165 43.7813 159.586 44.2027 159.895 44.768C160.205 45.3333 160.359 46.0213 160.359 46.832V52H158.919V47.04C158.919 46.1653 158.701 45.4987 158.263 45.04C157.837 44.5707 157.255 44.336 156.519 44.336C155.762 44.336 155.159 44.5813 154.711 45.072C154.263 45.552 154.039 46.2507 154.039 47.168V52H152.599V47.04C152.599 46.1653 152.381 45.4987 151.943 45.04C151.517 44.5707 150.935 44.336 150.199 44.336C149.442 44.336 148.839 44.5813 148.391 45.072C147.943 45.552 147.719 46.2507 147.719 47.168V52H146.263V43.232H147.719V44.496C148.007 44.0373 148.391 43.6853 148.871 43.44C149.362 43.1947 149.901 43.072 150.487 43.072C151.223 43.072 151.874 43.2373 152.439 43.568C153.005 43.8987 153.426 44.384 153.703 45.024C153.949 44.4053 154.354 43.9253 154.919 43.584C155.485 43.2427 156.114 43.072 156.807 43.072ZM170.748 47.28C170.748 47.5573 170.732 47.8507 170.7 48.16H163.692C163.745 49.024 164.038 49.7013 164.572 50.192C165.116 50.672 165.772 50.912 166.54 50.912C167.169 50.912 167.692 50.768 168.108 50.48C168.534 50.1813 168.833 49.7867 169.004 49.296H170.572C170.337 50.1387 169.868 50.8267 169.164 51.36C168.46 51.8827 167.585 52.144 166.54 52.144C165.708 52.144 164.961 51.9573 164.3 51.584C163.649 51.2107 163.137 50.6827 162.764 50C162.39 49.3067 162.204 48.5067 162.204 47.6C162.204 46.6933 162.385 45.8987 162.748 45.216C163.11 44.5333 163.617 44.0107 164.268 43.648C164.929 43.2747 165.686 43.088 166.54 43.088C167.372 43.088 168.108 43.2693 168.748 43.632C169.388 43.9947 169.878 44.496 170.22 45.136C170.572 45.7653 170.748 46.48 170.748 47.28ZM169.244 46.976C169.244 46.4213 169.121 45.9467 168.876 45.552C168.63 45.1467 168.294 44.8427 167.868 44.64C167.452 44.4267 166.988 44.32 166.476 44.32C165.74 44.32 165.11 44.5547 164.588 45.024C164.076 45.4933 163.782 46.144 163.708 46.976H169.244ZM174.126 40.16V52H172.67V40.16H174.126ZM176.063 47.584C176.063 46.688 176.244 45.904 176.607 45.232C176.97 44.5493 177.466 44.0213 178.095 43.648C178.735 43.2747 179.444 43.088 180.223 43.088C180.991 43.088 181.658 43.2533 182.223 43.584C182.788 43.9147 183.21 44.3307 183.487 44.832V43.232H184.959V52H183.487V50.368C183.199 50.88 182.767 51.3067 182.191 51.648C181.626 51.9787 180.964 52.144 180.207 52.144C179.428 52.144 178.724 51.952 178.095 51.568C177.466 51.184 176.97 50.6453 176.607 49.952C176.244 49.2587 176.063 48.4693 176.063 47.584ZM183.487 47.6C183.487 46.9387 183.354 46.3627 183.087 45.872C182.82 45.3813 182.458 45.008 181.999 44.752C181.551 44.4853 181.055 44.352 180.511 44.352C179.967 44.352 179.471 44.48 179.023 44.736C178.575 44.992 178.218 45.3653 177.951 45.856C177.684 46.3467 177.551 46.9227 177.551 47.584C177.551 48.256 177.684 48.8427 177.951 49.344C178.218 49.8347 178.575 50.2133 179.023 50.48C179.471 50.736 179.967 50.864 180.511 50.864C181.055 50.864 181.551 50.736 181.999 50.48C182.458 50.2133 182.82 49.8347 183.087 49.344C183.354 48.8427 183.487 48.2613 183.487 47.6ZM188.876 44.848C189.164 44.3467 189.59 43.9307 190.156 43.6C190.732 43.2587 191.398 43.088 192.156 43.088C192.934 43.088 193.638 43.2747 194.267 43.648C194.907 44.0213 195.409 44.5493 195.772 45.232C196.134 45.904 196.316 46.688 196.316 47.584C196.316 48.4693 196.134 49.2587 195.772 49.952C195.409 50.6453 194.907 51.184 194.267 51.568C193.638 51.952 192.934 52.144 192.156 52.144C191.409 52.144 190.748 51.9787 190.172 51.648C189.606 51.3067 189.174 50.8853 188.876 50.384V56.16H187.42V43.232H188.876V44.848ZM194.828 47.584C194.828 46.9227 194.694 46.3467 194.428 45.856C194.161 45.3653 193.798 44.992 193.34 44.736C192.892 44.48 192.396 44.352 191.852 44.352C191.318 44.352 190.822 44.4853 190.364 44.752C189.916 45.008 189.553 45.3867 189.276 45.888C189.009 46.3787 188.876 46.9493 188.876 47.6C188.876 48.2613 189.009 48.8427 189.276 49.344C189.553 49.8347 189.916 50.2133 190.364 50.48C190.822 50.736 191.318 50.864 191.852 50.864C192.396 50.864 192.892 50.736 193.34 50.48C193.798 50.2133 194.161 49.8347 194.428 49.344C194.694 48.8427 194.828 48.256 194.828 47.584ZM201.336 52.144C200.664 52.144 200.061 52.032 199.528 51.808C198.995 51.5733 198.573 51.2533 198.264 50.848C197.955 50.432 197.784 49.9573 197.752 49.424H199.256C199.299 49.8613 199.501 50.2187 199.864 50.496C200.237 50.7733 200.723 50.912 201.32 50.912C201.875 50.912 202.312 50.7893 202.632 50.544C202.952 50.2987 203.112 49.9893 203.112 49.616C203.112 49.232 202.941 48.9493 202.6 48.768C202.259 48.576 201.731 48.3893 201.016 48.208C200.365 48.0373 199.832 47.8667 199.416 47.696C199.011 47.5147 198.659 47.2533 198.36 46.912C198.072 46.56 197.928 46.1013 197.928 45.536C197.928 45.088 198.061 44.6773 198.328 44.304C198.595 43.9307 198.973 43.6373 199.464 43.424C199.955 43.2 200.515 43.088 201.144 43.088C202.115 43.088 202.899 43.3333 203.496 43.824C204.093 44.3147 204.413 44.9867 204.456 45.84H203C202.968 45.3813 202.781 45.0133 202.44 44.736C202.109 44.4587 201.661 44.32 201.096 44.32C200.573 44.32 200.157 44.432 199.848 44.656C199.539 44.88 199.384 45.1733 199.384 45.536C199.384 45.824 199.475 46.064 199.656 46.256C199.848 46.4373 200.083 46.5867 200.36 46.704C200.648 46.8107 201.043 46.9333 201.544 47.072C202.173 47.2427 202.685 47.4133 203.08 47.584C203.475 47.744 203.811 47.9893 204.088 48.32C204.376 48.6507 204.525 49.0827 204.536 49.616C204.536 50.096 204.403 50.528 204.136 50.912C203.869 51.296 203.491 51.6 203 51.824C202.52 52.0373 201.965 52.144 201.336 52.144ZM214.591 47.28C214.591 47.5573 214.575 47.8507 214.543 48.16H207.535C207.589 49.024 207.882 49.7013 208.415 50.192C208.959 50.672 209.615 50.912 210.383 50.912C211.013 50.912 211.535 50.768 211.951 50.48C212.378 50.1813 212.677 49.7867 212.847 49.296H214.415C214.181 50.1387 213.711 50.8267 213.007 51.36C212.303 51.8827 211.429 52.144 210.383 52.144C209.551 52.144 208.805 51.9573 208.143 51.584C207.493 51.2107 206.981 50.6827 206.607 50C206.234 49.3067 206.047 48.5067 206.047 47.6C206.047 46.6933 206.229 45.8987 206.591 45.216C206.954 44.5333 207.461 44.0107 208.111 43.648C208.773 43.2747 209.53 43.088 210.383 43.088C211.215 43.088 211.951 43.2693 212.591 43.632C213.231 43.9947 213.722 44.496 214.063 45.136C214.415 45.7653 214.591 46.48 214.591 47.28ZM213.087 46.976C213.087 46.4213 212.965 45.9467 212.719 45.552C212.474 45.1467 212.138 44.8427 211.711 44.64C211.295 44.4267 210.831 44.32 210.319 44.32C209.583 44.32 208.954 44.5547 208.431 45.024C207.919 45.4933 207.626 46.144 207.551 46.976H213.087ZM224.043 50.656L226.763 43.232H228.315L224.875 52H223.179L219.739 43.232H221.307L224.043 50.656ZM230.5 41.808C230.222 41.808 229.988 41.712 229.796 41.52C229.604 41.328 229.508 41.0933 229.508 40.816C229.508 40.5387 229.604 40.304 229.796 40.112C229.988 39.92 230.222 39.824 230.5 39.824C230.766 39.824 230.99 39.92 231.172 40.112C231.364 40.304 231.46 40.5387 231.46 40.816C231.46 41.0933 231.364 41.328 231.172 41.52C230.99 41.712 230.766 41.808 230.5 41.808ZM231.204 43.232V52H229.748V43.232H231.204ZM233.141 47.584C233.141 46.688 233.322 45.904 233.685 45.232C234.048 44.5493 234.544 44.0213 235.173 43.648C235.813 43.2747 236.528 43.088 237.317 43.088C238 43.088 238.634 43.248 239.221 43.568C239.808 43.8773 240.256 44.288 240.565 44.8V40.16H242.037V52H240.565V50.352C240.277 50.8747 239.85 51.3067 239.285 51.648C238.72 51.9787 238.058 52.144 237.301 52.144C236.522 52.144 235.813 51.952 235.173 51.568C234.544 51.184 234.048 50.6453 233.685 49.952C233.322 49.2587 233.141 48.4693 233.141 47.584ZM240.565 47.6C240.565 46.9387 240.432 46.3627 240.165 45.872C239.898 45.3813 239.536 45.008 239.077 44.752C238.629 44.4853 238.133 44.352 237.589 44.352C237.045 44.352 236.549 44.48 236.101 44.736C235.653 44.992 235.296 45.3653 235.029 45.856C234.762 46.3467 234.629 46.9227 234.629 47.584C234.629 48.256 234.762 48.8427 235.029 49.344C235.296 49.8347 235.653 50.2133 236.101 50.48C236.549 50.736 237.045 50.864 237.589 50.864C238.133 50.864 238.629 50.736 239.077 50.48C239.536 50.2133 239.898 49.8347 240.165 49.344C240.432 48.8427 240.565 48.2613 240.565 47.6ZM252.498 47.28C252.498 47.5573 252.482 47.8507 252.45 48.16H245.442C245.495 49.024 245.788 49.7013 246.322 50.192C246.866 50.672 247.522 50.912 248.29 50.912C248.919 50.912 249.442 50.768 249.858 50.48C250.284 50.1813 250.583 49.7867 250.754 49.296H252.322C252.087 50.1387 251.618 50.8267 250.914 51.36C250.21 51.8827 249.335 52.144 248.29 52.144C247.458 52.144 246.711 51.9573 246.05 51.584C245.399 51.2107 244.887 50.6827 244.514 50C244.14 49.3067 243.954 48.5067 243.954 47.6C243.954 46.6933 244.135 45.8987 244.498 45.216C244.86 44.5333 245.367 44.0107 246.018 43.648C246.679 43.2747 247.436 43.088 248.29 43.088C249.122 43.088 249.858 43.2693 250.498 43.632C251.138 43.9947 251.628 44.496 251.97 45.136C252.322 45.7653 252.498 46.48 252.498 47.28ZM250.994 46.976C250.994 46.4213 250.871 45.9467 250.626 45.552C250.38 45.1467 250.044 44.8427 249.618 44.64C249.202 44.4267 248.738 44.32 248.226 44.32C247.49 44.32 246.86 44.5547 246.338 45.024C245.826 45.4933 245.532 46.144 245.458 46.976H250.994ZM258.244 52.144C257.422 52.144 256.676 51.9573 256.004 51.584C255.342 51.2107 254.82 50.6827 254.436 50C254.062 49.3067 253.876 48.5067 253.876 47.6C253.876 46.704 254.068 45.9147 254.452 45.232C254.846 44.5387 255.38 44.0107 256.052 43.648C256.724 43.2747 257.476 43.088 258.308 43.088C259.14 43.088 259.892 43.2747 260.564 43.648C261.236 44.0107 261.764 44.5333 262.148 45.216C262.542 45.8987 262.74 46.6933 262.74 47.6C262.74 48.5067 262.537 49.3067 262.132 50C261.737 50.6827 261.198 51.2107 260.516 51.584C259.833 51.9573 259.076 52.144 258.244 52.144ZM258.244 50.864C258.766 50.864 259.257 50.7413 259.716 50.496C260.174 50.2507 260.542 49.8827 260.82 49.392C261.108 48.9013 261.252 48.304 261.252 47.6C261.252 46.896 261.113 46.2987 260.836 45.808C260.558 45.3173 260.196 44.9547 259.748 44.72C259.3 44.4747 258.814 44.352 258.292 44.352C257.758 44.352 257.268 44.4747 256.82 44.72C256.382 44.9547 256.03 45.3173 255.764 45.808C255.497 46.2987 255.364 46.896 255.364 47.6C255.364 48.3147 255.492 48.9173 255.748 49.408C256.014 49.8987 256.366 50.2667 256.804 50.512C257.241 50.7467 257.721 50.864 258.244 50.864ZM270.696 44.432V49.6C270.696 50.0267 270.786 50.3307 270.968 50.512C271.149 50.6827 271.464 50.768 271.911 50.768H272.984V52H271.672C270.861 52 270.253 51.8133 269.848 51.44C269.442 51.0667 269.24 50.4533 269.24 49.6V44.432H268.104V43.232H269.24V41.024H270.696V43.232H272.984V44.432H270.696ZM279.1 43.072C279.761 43.072 280.358 43.216 280.892 43.504C281.425 43.7813 281.841 44.2027 282.14 44.768C282.449 45.3333 282.604 46.0213 282.604 46.832V52H281.164V47.04C281.164 46.1653 280.945 45.4987 280.508 45.04C280.07 44.5707 279.473 44.336 278.716 44.336C277.948 44.336 277.334 44.576 276.876 45.056C276.428 45.536 276.204 46.2347 276.204 47.152V52H274.748V40.16H276.204V44.48C276.492 44.032 276.886 43.6853 277.388 43.44C277.9 43.1947 278.47 43.072 279.1 43.072ZM284.438 47.584C284.438 46.688 284.619 45.904 284.982 45.232C285.345 44.5493 285.841 44.0213 286.47 43.648C287.11 43.2747 287.819 43.088 288.598 43.088C289.366 43.088 290.033 43.2533 290.598 43.584C291.163 43.9147 291.585 44.3307 291.862 44.832V43.232H293.334V52H291.862V50.368C291.574 50.88 291.142 51.3067 290.566 51.648C290.001 51.9787 289.339 52.144 288.582 52.144C287.803 52.144 287.099 51.952 286.47 51.568C285.841 51.184 285.345 50.6453 284.982 49.952C284.619 49.2587 284.438 48.4693 284.438 47.584ZM291.862 47.6C291.862 46.9387 291.729 46.3627 291.462 45.872C291.195 45.3813 290.833 45.008 290.374 44.752C289.926 44.4853 289.43 44.352 288.886 44.352C288.342 44.352 287.846 44.48 287.398 44.736C286.95 44.992 286.593 45.3653 286.326 45.856C286.059 46.3467 285.926 46.9227 285.926 47.584C285.926 48.256 286.059 48.8427 286.326 49.344C286.593 49.8347 286.95 50.2133 287.398 50.48C287.846 50.736 288.342 50.864 288.886 50.864C289.43 50.864 289.926 50.736 290.374 50.48C290.833 50.2133 291.195 49.8347 291.462 49.344C291.729 48.8427 291.862 48.2613 291.862 47.6ZM297.571 44.432V49.6C297.571 50.0267 297.661 50.3307 297.843 50.512C298.024 50.6827 298.339 50.768 298.786 50.768H299.859V52H298.547C297.736 52 297.128 51.8133 296.723 51.44C296.317 51.0667 296.115 50.4533 296.115 49.6V44.432H294.979V43.232H296.115V41.024H297.571V43.232H299.859V44.432H297.571ZM57.336 81.144C56.664 81.144 56.0613 81.032 55.528 80.808C54.9947 80.5733 54.5733 80.2533 54.264 79.848C53.9547 79.432 53.784 78.9573 53.752 78.424H55.256C55.2987 78.8613 55.5013 79.2187 55.864 79.496C56.2373 79.7733 56.7227 79.912 57.32 79.912C57.8747 79.912 58.312 79.7893 58.632 79.544C58.952 79.2987 59.112 78.9893 59.112 78.616C59.112 78.232 58.9413 77.9493 58.6 77.768C58.2587 77.576 57.7307 77.3893 57.016 77.208C56.3653 77.0373 55.832 76.8667 55.416 76.696C55.0107 76.5147 54.6587 76.2533 54.36 75.912C54.072 75.56 53.928 75.1013 53.928 74.536C53.928 74.088 54.0613 73.6773 54.328 73.304C54.5947 72.9307 54.9733 72.6373 55.464 72.424C55.9547 72.2 56.5147 72.088 57.144 72.088C58.1147 72.088 58.8987 72.3333 59.496 72.824C60.0933 73.3147 60.4133 73.9867 60.456 74.84H59C58.968 74.3813 58.7813 74.0133 58.44 73.736C58.1093 73.4587 57.6613 73.32 57.096 73.32C56.5733 73.32 56.1573 73.432 55.848 73.656C55.5387 73.88 55.384 74.1733 55.384 74.536C55.384 74.824 55.4747 75.064 55.656 75.256C55.848 75.4373 56.0827 75.5867 56.36 75.704C56.648 75.8107 57.0427 75.9333 57.544 76.072C58.1733 76.2427 58.6853 76.4133 59.08 76.584C59.4747 76.744 59.8107 76.9893 60.088 77.32C60.376 77.6507 60.5253 78.0827 60.536 78.616C60.536 79.096 60.4027 79.528 60.136 79.912C59.8693 80.296 59.4907 80.6 59 80.824C58.52 81.0373 57.9653 81.144 57.336 81.144ZM66.9434 72.072C67.6047 72.072 68.202 72.216 68.7354 72.504C69.2687 72.7813 69.6847 73.2027 69.9834 73.768C70.2927 74.3333 70.4474 75.0213 70.4474 75.832V81H69.0074V76.04C69.0074 75.1653 68.7887 74.4987 68.3514 74.04C67.914 73.5707 67.3167 73.336 66.5594 73.336C65.7914 73.336 65.178 73.576 64.7194 74.056C64.2714 74.536 64.0474 75.2347 64.0474 76.152V81H62.5914V69.16H64.0474V73.48C64.3354 73.032 64.73 72.6853 65.2314 72.44C65.7434 72.1947 66.314 72.072 66.9434 72.072ZM76.6498 81.144C75.8284 81.144 75.0818 80.9573 74.4098 80.584C73.7484 80.2107 73.2258 79.6827 72.8418 79C72.4684 78.3067 72.2818 77.5067 72.2818 76.6C72.2818 75.704 72.4738 74.9147 72.8578 74.232C73.2524 73.5387 73.7858 73.0107 74.4578 72.648C75.1298 72.2747 75.8818 72.088 76.7138 72.088C77.5458 72.088 78.2978 72.2747 78.9698 72.648C79.6418 73.0107 80.1698 73.5333 80.5538 74.216C80.9484 74.8987 81.1458 75.6933 81.1458 76.6C81.1458 77.5067 80.9431 78.3067 80.5378 79C80.1431 79.6827 79.6044 80.2107 78.9218 80.584C78.2391 80.9573 77.4818 81.144 76.6498 81.144ZM76.6498 79.864C77.1724 79.864 77.6631 79.7413 78.1218 79.496C78.5804 79.2507 78.9484 78.8827 79.2258 78.392C79.5138 77.9013 79.6578 77.304 79.6578 76.6C79.6578 75.896 79.5191 75.2987 79.2418 74.808C78.9644 74.3173 78.6018 73.9547 78.1538 73.72C77.7058 73.4747 77.2204 73.352 76.6978 73.352C76.1644 73.352 75.6738 73.4747 75.2258 73.72C74.7884 73.9547 74.4364 74.3173 74.1698 74.808C73.9031 75.2987 73.7698 75.896 73.7698 76.6C73.7698 77.3147 73.8978 77.9173 74.1538 78.408C74.4204 78.8987 74.7724 79.2667 75.2098 79.512C75.6471 79.7467 76.1271 79.864 76.6498 79.864ZM94.7401 72.232L92.0041 81H90.5001L88.3881 74.04L86.2761 81H84.7721L82.0201 72.232H83.5081L85.5241 79.592L87.7001 72.232H89.1881L91.3161 79.608L93.3001 72.232H94.7401ZM99.2891 81.144C98.6171 81.144 98.0145 81.032 97.4811 80.808C96.9478 80.5733 96.5265 80.2533 96.2171 79.848C95.9078 79.432 95.7371 78.9573 95.7051 78.424H97.2091C97.2518 78.8613 97.4545 79.2187 97.8171 79.496C98.1905 79.7733 98.6758 79.912 99.2731 79.912C99.8278 79.912 100.265 79.7893 100.585 79.544C100.905 79.2987 101.065 78.9893 101.065 78.616C101.065 78.232 100.894 77.9493 100.553 77.768C100.212 77.576 99.6838 77.3893 98.9691 77.208C98.3185 77.0373 97.7851 76.8667 97.3691 76.696C96.9638 76.5147 96.6118 76.2533 96.3131 75.912C96.0251 75.56 95.8811 75.1013 95.8811 74.536C95.8811 74.088 96.0145 73.6773 96.2811 73.304C96.5478 72.9307 96.9265 72.6373 97.4171 72.424C97.9078 72.2 98.4678 72.088 99.0971 72.088C100.068 72.088 100.852 72.3333 101.449 72.824C102.046 73.3147 102.366 73.9867 102.409 74.84H100.953C100.921 74.3813 100.734 74.0133 100.393 73.736C100.062 73.4587 99.6145 73.32 99.0491 73.32C98.5265 73.32 98.1105 73.432 97.8011 73.656C97.4918 73.88 97.3371 74.1733 97.3371 74.536C97.3371 74.824 97.4278 75.064 97.6091 75.256C97.8011 75.4373 98.0358 75.5867 98.3131 75.704C98.6011 75.8107 98.9958 75.9333 99.4971 76.072C100.126 76.2427 100.638 76.4133 101.033 76.584C101.428 76.744 101.764 76.9893 102.041 77.32C102.329 77.6507 102.478 78.0827 102.489 78.616C102.489 79.096 102.356 79.528 102.089 79.912C101.822 80.296 101.444 80.6 100.953 80.824C100.473 81.0373 99.9185 81.144 99.2891 81.144ZM113.162 72.072C113.823 72.072 114.421 72.216 114.954 72.504C115.487 72.7813 115.903 73.2027 116.202 73.768C116.511 74.3333 116.666 75.0213 116.666 75.832V81H115.226V76.04C115.226 75.1653 115.007 74.4987 114.57 74.04C114.133 73.5707 113.535 73.336 112.778 73.336C112.01 73.336 111.397 73.576 110.938 74.056C110.49 74.536 110.266 75.2347 110.266 76.152V81H108.81V69.16H110.266V73.48C110.554 73.032 110.949 72.6853 111.45 72.44C111.962 72.1947 112.533 72.072 113.162 72.072ZM122.869 81.144C122.047 81.144 121.301 80.9573 120.629 80.584C119.967 80.2107 119.445 79.6827 119.061 79C118.687 78.3067 118.501 77.5067 118.501 76.6C118.501 75.704 118.693 74.9147 119.077 74.232C119.471 73.5387 120.005 73.0107 120.677 72.648C121.349 72.2747 122.101 72.088 122.933 72.088C123.765 72.088 124.517 72.2747 125.189 72.648C125.861 73.0107 126.389 73.5333 126.773 74.216C127.167 74.8987 127.365 75.6933 127.365 76.6C127.365 77.5067 127.162 78.3067 126.757 79C126.362 79.6827 125.823 80.2107 125.141 80.584C124.458 80.9573 123.701 81.144 122.869 81.144ZM122.869 79.864C123.391 79.864 123.882 79.7413 124.341 79.496C124.799 79.2507 125.167 78.8827 125.445 78.392C125.733 77.9013 125.877 77.304 125.877 76.6C125.877 75.896 125.738 75.2987 125.461 74.808C125.183 74.3173 124.821 73.9547 124.373 73.72C123.925 73.4747 123.439 73.352 122.917 73.352C122.383 73.352 121.893 73.4747 121.445 73.72C121.007 73.9547 120.655 74.3173 120.389 74.808C120.122 75.2987 119.989 75.896 119.989 76.6C119.989 77.3147 120.117 77.9173 120.373 78.408C120.639 78.8987 120.991 79.2667 121.429 79.512C121.866 79.7467 122.346 79.864 122.869 79.864ZM140.959 72.232L138.223 81H136.719L134.607 74.04L132.495 81H130.991L128.239 72.232H129.727L131.743 79.592L133.919 72.232H135.407L137.535 79.608L139.519 72.232H140.959ZM150.494 81.144C149.672 81.144 148.926 80.9573 148.254 80.584C147.592 80.2107 147.07 79.6827 146.686 79C146.312 78.3067 146.126 77.5067 146.126 76.6C146.126 75.704 146.318 74.9147 146.702 74.232C147.096 73.5387 147.63 73.0107 148.302 72.648C148.974 72.2747 149.726 72.088 150.558 72.088C151.39 72.088 152.142 72.2747 152.814 72.648C153.486 73.0107 154.014 73.5333 154.398 74.216C154.792 74.8987 154.99 75.6933 154.99 76.6C154.99 77.5067 154.787 78.3067 154.382 79C153.987 79.6827 153.448 80.2107 152.766 80.584C152.083 80.9573 151.326 81.144 150.494 81.144ZM150.494 79.864C151.016 79.864 151.507 79.7413 151.966 79.496C152.424 79.2507 152.792 78.8827 153.07 78.392C153.358 77.9013 153.502 77.304 153.502 76.6C153.502 75.896 153.363 75.2987 153.086 74.808C152.808 74.3173 152.446 73.9547 151.998 73.72C151.55 73.4747 151.064 73.352 150.542 73.352C150.008 73.352 149.518 73.4747 149.07 73.72C148.632 73.9547 148.28 74.3173 148.014 74.808C147.747 75.2987 147.614 75.896 147.614 76.6C147.614 77.3147 147.742 77.9173 147.998 78.408C148.264 78.8987 148.616 79.2667 149.054 79.512C149.491 79.7467 149.971 79.864 150.494 79.864ZM164.68 72.232V81H163.224V79.704C162.947 80.152 162.557 80.504 162.056 80.76C161.565 81.0053 161.021 81.128 160.424 81.128C159.741 81.128 159.128 80.9893 158.584 80.712C158.04 80.424 157.608 79.9973 157.288 79.432C156.979 78.8667 156.824 78.1787 156.824 77.368V72.232H158.264V77.176C158.264 78.04 158.483 78.7067 158.92 79.176C159.357 79.6347 159.955 79.864 160.712 79.864C161.491 79.864 162.104 79.624 162.552 79.144C163 78.664 163.224 77.9653 163.224 77.048V72.232H164.68ZM168.594 73.656C168.85 73.1547 169.213 72.7653 169.682 72.488C170.162 72.2107 170.744 72.072 171.426 72.072V73.576H171.042C169.41 73.576 168.594 74.4613 168.594 76.232V81H167.138V72.232H168.594V73.656ZM179.149 73.432V78.6C179.149 79.0267 179.239 79.3307 179.421 79.512C179.602 79.6827 179.917 79.768 180.365 79.768H181.437V81H180.125C179.314 81 178.706 80.8133 178.301 80.44C177.895 80.0667 177.693 79.4533 177.693 78.6V73.432H176.557V72.232H177.693V70.024H179.149V72.232H181.437V73.432H179.149ZM191.201 76.28C191.201 76.5573 191.185 76.8507 191.153 77.16H184.145C184.198 78.024 184.491 78.7013 185.025 79.192C185.569 79.672 186.225 79.912 186.993 79.912C187.622 79.912 188.145 79.768 188.561 79.48C188.987 79.1813 189.286 78.7867 189.457 78.296H191.025C190.79 79.1387 190.321 79.8267 189.617 80.36C188.913 80.8827 188.038 81.144 186.993 81.144C186.161 81.144 185.414 80.9573 184.753 80.584C184.102 80.2107 183.59 79.6827 183.217 79C182.843 78.3067 182.657 77.5067 182.657 76.6C182.657 75.6933 182.838 74.8987 183.201 74.216C183.563 73.5333 184.07 73.0107 184.721 72.648C185.382 72.2747 186.139 72.088 186.993 72.088C187.825 72.088 188.561 72.2693 189.201 72.632C189.841 72.9947 190.331 73.496 190.673 74.136C191.025 74.7653 191.201 75.48 191.201 76.28ZM189.697 75.976C189.697 75.4213 189.574 74.9467 189.329 74.552C189.083 74.1467 188.747 73.8427 188.321 73.64C187.905 73.4267 187.441 73.32 186.929 73.32C186.193 73.32 185.563 73.5547 185.041 74.024C184.529 74.4933 184.235 75.144 184.161 75.976H189.697ZM192.579 76.584C192.579 75.688 192.76 74.904 193.123 74.232C193.485 73.5493 193.981 73.0213 194.611 72.648C195.251 72.2747 195.96 72.088 196.739 72.088C197.507 72.088 198.173 72.2533 198.739 72.584C199.304 72.9147 199.725 73.3307 200.003 73.832V72.232H201.475V81H200.003V79.368C199.715 79.88 199.283 80.3067 198.707 80.648C198.141 80.9787 197.48 81.144 196.723 81.144C195.944 81.144 195.24 80.952 194.611 80.568C193.981 80.184 193.485 79.6453 193.123 78.952C192.76 78.2587 192.579 77.4693 192.579 76.584ZM200.003 76.6C200.003 75.9387 199.869 75.3627 199.603 74.872C199.336 74.3813 198.973 74.008 198.515 73.752C198.067 73.4853 197.571 73.352 197.027 73.352C196.483 73.352 195.987 73.48 195.539 73.736C195.091 73.992 194.733 74.3653 194.467 74.856C194.2 75.3467 194.067 75.9227 194.067 76.584C194.067 77.256 194.2 77.8427 194.467 78.344C194.733 78.8347 195.091 79.2133 195.539 79.48C195.987 79.736 196.483 79.864 197.027 79.864C197.571 79.864 198.067 79.736 198.515 79.48C198.973 79.2133 199.336 78.8347 199.603 78.344C199.869 77.8427 200.003 77.2613 200.003 76.6ZM214.479 72.072C215.162 72.072 215.77 72.216 216.303 72.504C216.836 72.7813 217.258 73.2027 217.567 73.768C217.876 74.3333 218.031 75.0213 218.031 75.832V81H216.591V76.04C216.591 75.1653 216.372 74.4987 215.935 74.04C215.508 73.5707 214.927 73.336 214.191 73.336C213.434 73.336 212.831 73.5813 212.383 74.072C211.935 74.552 211.711 75.2507 211.711 76.168V81H210.271V76.04C210.271 75.1653 210.052 74.4987 209.615 74.04C209.188 73.5707 208.607 73.336 207.871 73.336C207.114 73.336 206.511 73.5813 206.063 74.072C205.615 74.552 205.391 75.2507 205.391 76.168V81H203.935V72.232H205.391V73.496C205.679 73.0373 206.063 72.6853 206.543 72.44C207.034 72.1947 207.572 72.072 208.159 72.072C208.895 72.072 209.546 72.2373 210.111 72.568C210.676 72.8987 211.098 73.384 211.375 74.024C211.62 73.4053 212.026 72.9253 212.591 72.584C213.156 72.2427 213.786 72.072 214.479 72.072ZM223.524 81.144C222.852 81.144 222.249 81.032 221.716 80.808C221.182 80.5733 220.761 80.2533 220.452 79.848C220.142 79.432 219.972 78.9573 219.94 78.424H221.444C221.486 78.8613 221.689 79.2187 222.052 79.496C222.425 79.7733 222.91 79.912 223.508 79.912C224.062 79.912 224.5 79.7893 224.82 79.544C225.14 79.2987 225.3 78.9893 225.3 78.616C225.3 78.232 225.129 77.9493 224.788 77.768C224.446 77.576 223.918 77.3893 223.204 77.208C222.553 77.0373 222.02 76.8667 221.604 76.696C221.198 76.5147 220.846 76.2533 220.548 75.912C220.26 75.56 220.116 75.1013 220.116 74.536C220.116 74.088 220.249 73.6773 220.516 73.304C220.782 72.9307 221.161 72.6373 221.652 72.424C222.142 72.2 222.702 72.088 223.332 72.088C224.302 72.088 225.086 72.3333 225.684 72.824C226.281 73.3147 226.601 73.9867 226.644 74.84H225.188C225.156 74.3813 224.969 74.0133 224.628 73.736C224.297 73.4587 223.849 73.32 223.284 73.32C222.761 73.32 222.345 73.432 222.036 73.656C221.726 73.88 221.572 74.1733 221.572 74.536C221.572 74.824 221.662 75.064 221.844 75.256C222.036 75.4373 222.27 75.5867 222.548 75.704C222.836 75.8107 223.23 75.9333 223.732 76.072C224.361 76.2427 224.873 76.4133 225.268 76.584C225.662 76.744 225.998 76.9893 226.276 77.32C226.564 77.6507 226.713 78.0827 226.724 78.616C226.724 79.096 226.59 79.528 226.324 79.912C226.057 80.296 225.678 80.6 225.188 80.824C224.708 81.0373 224.153 81.144 223.524 81.144ZM244.725 72.232L241.989 81H240.485L238.373 74.04L236.261 81H234.757L232.005 72.232H233.493L235.509 79.592L237.685 72.232H239.173L241.301 79.608L243.285 72.232H244.725ZM249.994 81.144C249.172 81.144 248.426 80.9573 247.754 80.584C247.092 80.2107 246.57 79.6827 246.186 79C245.812 78.3067 245.626 77.5067 245.626 76.6C245.626 75.704 245.818 74.9147 246.202 74.232C246.596 73.5387 247.13 73.0107 247.802 72.648C248.474 72.2747 249.226 72.088 250.058 72.088C250.89 72.088 251.642 72.2747 252.314 72.648C252.986 73.0107 253.514 73.5333 253.898 74.216C254.292 74.8987 254.49 75.6933 254.49 76.6C254.49 77.5067 254.287 78.3067 253.882 79C253.487 79.6827 252.948 80.2107 252.266 80.584C251.583 80.9573 250.826 81.144 249.994 81.144ZM249.994 79.864C250.516 79.864 251.007 79.7413 251.466 79.496C251.924 79.2507 252.292 78.8827 252.57 78.392C252.858 77.9013 253.002 77.304 253.002 76.6C253.002 75.896 252.863 75.2987 252.586 74.808C252.308 74.3173 251.946 73.9547 251.498 73.72C251.05 73.4747 250.564 73.352 250.042 73.352C249.508 73.352 249.018 73.4747 248.57 73.72C248.132 73.9547 247.78 74.3173 247.514 74.808C247.247 75.2987 247.114 75.896 247.114 76.6C247.114 77.3147 247.242 77.9173 247.498 78.408C247.764 78.8987 248.116 79.2667 248.554 79.512C248.991 79.7467 249.471 79.864 249.994 79.864ZM257.86 73.656C258.116 73.1547 258.479 72.7653 258.948 72.488C259.428 72.2107 260.009 72.072 260.692 72.072V73.576H260.308C258.676 73.576 257.86 74.4613 257.86 76.232V81H256.404V72.232H257.86V73.656ZM267.269 81L263.829 77.128V81H262.373V69.16H263.829V76.12L267.205 72.232H269.237L265.109 76.6L269.253 81H267.269Z" fill="white"/>
<defs>
<linearGradient id="paint0_linear_22_925" x1="243.5" y1="156.4" x2="244.441" y2="7.25514" gradientUnits="userSpaceOnUse">
<stop stop-color="#023957"/>
<stop offset="1" stop-color="#056088"/>
</linearGradient>
</defs>
</svg>
